Coordinates
version=1
nRows=11
nColumns=40
inDegrees=yes

Units are S.I. units (second, meters, Newtons, ...)
Angles are in degrees.

endheader
time	pelvis_tilt	pelvis_list	pelvis_rotation	pelvis_tx	pelvis_ty	pelvis_tz	hip_flexion_r	hip_adduction_r	hip_rotation_r	knee_angle_r	knee_angle_r_beta	ankle_angle_r	subtalar_angle_r	mtp_angle_r	hip_flexion_l	hip_adduction_l	hip_rotation_l	knee_angle_l	knee_angle_l_beta	ankle_angle_l	subtalar_angle_l	mtp_angle_l	lumbar_extension	lumbar_bending	lumbar_rotation	arm_flex_r	arm_add_r	arm_rot_r	elbow_flex_r	pro_sup_r	wrist_flex_r	wrist_dev_r	arm_flex_l	arm_add_l	arm_rot_l	elbow_flex_l	pro_sup_l	wrist_flex_l	wrist_dev_l
     35.71250000	     -3.65329865	     -3.17384032	      5.04253773	      0.94468318	      0.92070577	      0.45157883	      1.68188664	     -1.99145600	    -14.39341640	     32.82736658	     32.82736658	     13.99510781	     -5.96897601	    -13.16494903	     26.29473074	     -2.39693687	     -2.50976068	     25.71179069	     25.71179069	      6.95211642	    -16.29738506	      5.59586855	     -5.63294075	      4.20567685	      5.27949991	     32.63840612	    -15.90073312	    -12.65268581	     79.10324625	     45.02027858	      0.00000000	      0.00000000	     -6.12971547	     -6.78223217	      4.75307040	     24.82297593	     45.00842461	      0.00000000	      0.00000000
     35.72457143	     -3.62104473	     -3.11236580	      4.75869399	      0.94459560	      0.92162227	      0.44978989	      3.30041737	     -2.59440064	    -13.69857619	     36.29835566	     36.29835566	     10.74105472	     -9.16447372	    -17.76675812	     25.61327222	     -2.41198873	     -2.99552757	     25.56631729	     25.56631729	      7.22822651	    -16.06384619	      4.70830079	     -5.65530176	      4.12284630	      4.89855854	     31.53731231	    -15.46346690	    -12.16157161	     76.76494005	     45.10630407	      0.00000000	      0.00000000	     -5.02461972	     -6.97834573	      4.50935644	     25.44392927	     45.11223542	      0.00000000	      0.00000000
     35.73664286	     -3.55543242	     -2.90077508	      4.44054734	      0.94436542	      0.92245221	      0.44800436	      5.17127345	     -3.51942935	    -13.24319121	     40.42006785	     40.42006785	      8.96073111	    -10.59468889	    -17.81068833	     24.84982065	     -2.26446004	     -3.50799929	     25.37969273	     25.37969273	      7.68755143	    -15.76492727	      4.41275676	     -5.81139421	      3.89415882	      4.75603723	     29.97011031	    -15.21285068	    -11.91766751	     75.75112614	     45.12765782	      0.00000000	      0.00000000	     -3.71070746	     -7.24204712	      4.43854822	     26.02895051	     45.14988513	      0.00000000	      0.00000000
     35.74871429	     -3.46505141	     -2.70018618	      4.15570428	      0.94394359	      0.92310530	      0.44627481	      7.11794856	     -4.36068776	    -12.72602259	     44.52862179	     44.52862179	      7.00445535	    -12.24837854	    -17.51637899	     24.12171742	     -2.12408401	     -4.05712697	     25.26640840	     25.26640840	      8.10679926	    -15.48891776	      4.08000916	     -6.00569321	      3.71985154	      4.61155868	     28.38268142	    -14.93941031	    -11.65615254	     74.53114203	     45.15440815	      0.00000000	      0.00000000	     -2.29005474	     -7.55477136	      4.37146741	     26.67505673	     45.18684512	      0.00000000	      0.00000000
     35.76078571	     -3.44438824	     -2.70080674	      3.86819691	      0.94335224	      0.92355904	      0.44488857	      9.23164182	     -4.74483451	    -11.89876064	     48.48961101	     48.48961101	      5.03953330	    -14.28749350	    -16.09537219	     23.54229285	     -2.22031967	     -4.54375205	     25.22279639	     25.22279639	      8.47492957	    -15.08933096	      3.45950485	     -6.04468402	      3.74168011	      4.62239950	     26.87596694	    -14.86776165	    -11.35609634	     72.31352456	     45.21668052	      0.00000000	      0.00000000	     -0.86515129	     -7.86796626	      4.31088652	     27.56456888	     45.22457043	      0.00000000	      0.00000000
     35.77285714	     -3.36023609	     -2.56640476	      3.60305443	      0.94259662	      0.92399240	      0.44346220	     11.39654384	     -5.34619586	    -11.26918604	     52.57780104	     52.57780104	      4.20663492	    -14.89025791	    -11.98084949	     22.84823561	     -2.15938732	     -5.06630923	     25.08125636	     25.08125636	      8.65725509	    -14.76369758	      2.51308725	     -6.20261746	      3.60778118	      3.99101245	     26.02362165	    -14.20301264	    -10.65041890	     69.35078646	     45.29803649	      0.00000000	      0.00000000	      0.16161562	     -8.38630173	      4.33100897	     28.67416323	     45.25234699	      0.00000000	      0.00000000
     35.78492857	     -3.22862880	     -2.37785972	      3.35503703	      0.94173594	      0.92445868	      0.44193606	     13.36729791	     -5.99051238	    -10.72472615	     56.08904977	     56.08904977	      2.45015012	    -15.92392601	    -11.24352276	     22.12443755	     -1.98122778	     -5.41620683	     24.97032837	     24.97032837	      8.97247522	    -14.60923051	      2.33388304	     -6.50933901	      3.53351390	      3.74555183	     24.34157409	    -13.87335734	    -10.36227908	     68.27963955	     45.31690194	      0.00000000	      0.00000000	      1.68536075	     -8.78498638	      4.24229232	     29.35317715	     45.29154161	      0.00000000	      0.00000000
     35.79700000	     -3.23275417	     -2.24742005	      3.09158626	      0.94071478	      0.92473178	      0.44061785	     15.51926502	     -6.40198312	    -10.02320304	     59.32407953	     59.32407953	      1.05758391	    -16.93085339	     -9.83679056	     21.55031238	     -1.86503950	     -5.80118632	     24.82963848	     24.82963848	      9.38163585	    -14.45727774	      2.07747270	     -6.60979843	      3.40906900	      3.77995753	     22.53980964	    -13.80425865	    -10.08682640	     66.62233561	     45.35591165	      0.00000000	      0.00000000	      3.30866577	     -9.14946433	      4.15038234	     30.17260443	     45.33221501	      0.00000000	      0.00000000
     35.80907143	     -3.14754063	     -2.32098470	      2.86722873	      0.93958311	      0.92525245	      0.43954687	     17.74080024	     -6.42390151	     -9.29209615	     62.65139774	     62.65139774	      2.39668454	    -16.31749241	     -1.41236137	     20.92700330	     -1.97693636	     -6.05494333	     24.70957997	     24.70957997	      9.60842006	    -14.26680482	      1.46826229	     -6.76629796	      3.54281737	      3.34226468	     21.84505692	    -13.41359943	     -9.34889519	     62.34225945	     45.47221791	      0.00000000	      0.00000000	      4.58237453	     -9.66981523	      4.31372073	     31.40191926	     45.34811828	      0.00000000	      0.00000000
     35.82114286	     -3.02107965	     -2.27069643	      2.68060598	      0.93849201	      0.92594160	      0.43831347	     19.53690690	     -6.62025834	     -8.77030756	     64.94705295	     64.94705295	      1.41274016	    -16.91768422	     -1.09539584	     20.21106697	     -1.90617547	     -6.25258496	     24.52191309	     24.52191309	      9.93919815	    -14.16612638	      1.36317764	     -7.06586452	      3.60532738	      3.14257699	     20.01213155	    -13.10071285	     -9.07495141	     61.11425042	     45.49494775	      0.00000000	      0.00000000	      6.21387729	    -10.11114094	      4.19775913	     32.10792226	     45.39055517	      0.00000000	      0.00000000
     35.83321429	     -2.97922303	     -2.31844039	      2.41213130	      0.93729523	      0.92670559	      0.43732785	     21.46519703	     -6.56738376	     -8.16516052	     66.97895434	     66.97895434	      1.54831518	    -17.02503313	      1.60906768	     19.52341338	     -1.94587528	     -6.45691148	     24.19782397	     24.19782397	     10.20029624	    -14.09496267	      1.11527798	     -7.17016576	      3.73993659	      3.18029884	     19.00355512	    -12.99577085	     -8.67079173	     56.81052952	     45.61961984	      0.00000000	      0.00000000	      7.91778061	    -10.44543635	      4.33986926	     32.77693092	     45.41151824	      0.00000000	      0.00000000
